<svg width="137" height="137" viewBox="0 0 137 137" fill="none" xmlns="http://www.w3.org/2000/svg">
<path d="M68.4999 125.583C55.2756 122.253 44.3575 114.665 35.7455 102.818C27.1335 90.9716 22.8294 77.8196 22.8333 63.3623V28.5415L68.4999 11.4165L114.167 28.5415V63.3623C114.167 77.8234 109.861 90.9773 101.249 102.824C92.6367 114.671 81.7204 122.257 68.4999 125.583ZM68.4999 113.596C77.7284 110.741 85.4346 105.104 91.6187 96.6819C97.8027 88.2602 101.418 78.8662 102.465 68.4998H68.4999V23.5467L34.2499 36.3905V65.9311C34.2499 66.5971 34.3451 67.4533 34.5353 68.4998H68.4999V113.596Z" fill="black"/>
</svg>
