<svg width="116" height="116" viewBox="0 0 116 116" fill="none" xmlns="http://www.w3.org/2000/svg">
<g clip-path="url(#clip0_87_12618)">
<path d="M58 38.6667L43.5 47.125V64.0417L58 72.5L72.5 64.0417V47.125L58 38.6667ZM65.3322 48.5267L57.9372 52.838L50.605 48.5605L58 44.2492L65.3322 48.5267ZM48.285 52.7897L55.4577 56.9753V65.4337L48.285 61.2528V52.7897ZM60.2427 65.6125V57.072L67.715 52.7123V61.2528L60.2427 65.6125ZM14.5 0L0 8.45833V25.375L14.5 33.8333L29 25.375V8.45833L14.5 0ZM21.8322 9.86L14.4372 14.1713L7.105 9.89383L14.5 5.5825L21.8322 9.86ZM4.785 14.1182L11.9577 18.3038V26.7622L4.785 22.591V14.1182ZM16.7427 26.941V18.4053L24.215 14.0457V22.5862L16.7427 26.941ZM14.5 82.1667L0 90.625V107.542L14.5 116L29 107.542V90.625L14.5 82.1667ZM21.8322 92.0267L14.4372 96.338L7.105 92.0605L14.5 87.7492L21.8322 92.0267ZM4.785 96.2897L11.9577 100.475V108.934L4.785 104.758V96.2897ZM16.7427 109.113V100.572L24.215 96.2123V104.753L16.7427 109.113ZM101.5 0L87 8.45833V25.375L101.5 33.8333L116 25.375V8.45833L101.5 0ZM108.832 9.86L101.437 14.1713L94.105 9.89383L101.5 5.5825L108.832 9.86ZM91.785 14.123L98.9577 18.3087V26.767L91.785 22.5862V14.123ZM103.743 26.9458V18.4053L111.215 14.0457V22.5862L103.743 26.9458ZM101.5 82.1667L87 90.625V107.542L101.5 116L116 107.542V90.625L101.5 82.1667ZM108.832 92.0267L101.437 96.338L94.105 92.0605L101.5 87.7492L108.832 92.0267ZM91.785 96.2897L98.9577 100.475V108.934L91.785 104.753V96.2897ZM103.743 109.113V100.572L111.215 96.2123V104.753L103.743 109.113ZM43.5 14.5H72.5V19.3333H43.5V14.5ZM43.5 96.6667H72.5V101.5H43.5V96.6667ZM16.9167 43.5V72.5H12.0833V43.5H16.9167ZM35.2495 42.6687L24.998 32.4172L28.4152 29L38.6667 39.2467L35.2495 42.6687ZM77.3333 40.0828L87.5848 29.8313L91.002 33.2485L80.7505 43.5L77.3333 40.0828ZM39.2853 71.9152L29.0338 82.1667L25.6167 78.7495L35.8682 68.498L39.2853 71.9152ZM81.5818 68.2902L91.8333 78.5417L88.4162 81.9588L78.1647 71.7073L81.5818 68.2902ZM103.917 43.5V72.5H99.0833V43.5H103.917Z" fill="black"/>
</g>
<defs>
<clipPath id="clip0_87_12618">
<rect width="116" height="116" fill="white"/>
</clipPath>
</defs>
</svg>
