<svg width="148" height="39" viewBox="0 0 148 39" fill="none" xmlns="http://www.w3.org/2000/svg">
<circle cx="13" cy="19.5" r="13" fill="#3F3F3F"/>
<circle cx="33" cy="19.5" r="13" fill="#3F3F3F"/>
<path d="M61.875 13.91C63.075 13.91 64.135 14.165 65.055 14.675C65.975 15.185 66.685 15.89 67.185 16.79C67.685 17.69 67.935 18.71 67.935 19.85C67.935 21.02 67.555 22.1 66.795 23.09C66.045 24.08 65.11 24.865 63.99 25.445C62.87 26.015 61.81 26.3 60.81 26.3C59.61 26.3 58.55 26.05 57.63 25.55C56.72 25.04 56.01 24.335 55.5 23.435C55 22.535 54.75 21.515 54.75 20.375C54.75 19.205 55.125 18.125 55.875 17.135C56.635 16.135 57.575 15.35 58.695 14.78C59.815 14.2 60.875 13.91 61.875 13.91ZM61.005 15.92C60.505 15.92 60.045 16.085 59.625 16.415C59.215 16.735 58.885 17.18 58.635 17.75C58.395 18.32 58.275 18.955 58.275 19.655C58.275 20.505 58.4 21.28 58.65 21.98C58.9 22.68 59.28 23.24 59.79 23.66C60.31 24.08 60.94 24.29 61.68 24.29C62.18 24.29 62.635 24.13 63.045 23.81C63.465 23.48 63.795 23.03 64.035 22.46C64.285 21.89 64.41 21.255 64.41 20.555C64.41 19.695 64.285 18.915 64.035 18.215C63.785 17.515 63.405 16.96 62.895 16.55C62.385 16.13 61.755 15.92 61.005 15.92ZM74.3477 20.18C74.0677 20.18 73.7977 20.27 73.5377 20.45V24.215L75.9377 24.8L75.3377 26H69.2027V24.935L70.5377 23.765V20.84L69.2027 19.97V18.905L72.6677 17.57L73.2677 19.13L74.5427 17.825C74.7227 17.745 74.9477 17.705 75.2177 17.705C75.8677 17.705 76.4127 17.84 76.8527 18.11C77.2927 18.38 77.5927 18.755 77.7527 19.235L76.0577 21.365H74.8877C74.8877 20.935 74.8477 20.63 74.7677 20.45C74.6877 20.27 74.5477 20.18 74.3477 20.18ZM83.2143 17.705C84.3243 17.705 85.1843 18.12 85.7943 18.95C86.4043 19.78 86.6943 20.96 86.6643 22.49H81.3693C81.4893 22.95 81.6893 23.315 81.9693 23.585C82.2493 23.845 82.6043 23.975 83.0343 23.975C83.7443 23.975 84.8043 23.715 86.2143 23.195L86.6643 24.215L84.6093 25.865C83.9293 26.055 83.1143 26.15 82.1643 26.15C81.3843 26.15 80.6843 25.98 80.0643 25.64C79.4543 25.29 78.9743 24.815 78.6243 24.215C78.2843 23.605 78.1143 22.93 78.1143 22.19C78.1143 21.39 78.3793 20.645 78.9093 19.955C79.4393 19.265 80.1043 18.72 80.9043 18.32C81.7043 17.91 82.4793 17.705 83.2293 17.705H83.2143ZM82.4193 19.715C82.0493 19.715 81.7693 19.845 81.5793 20.105C81.3893 20.355 81.2843 20.745 81.2643 21.275H83.7393C83.6893 20.745 83.5593 20.355 83.3493 20.105C83.1393 19.845 82.8243 19.715 82.4043 19.715H82.4193ZM94.7777 14.06C95.9577 14.06 96.9977 14.31 97.8977 14.81C98.8077 15.3 99.5127 15.985 100.013 16.865C100.513 17.745 100.763 18.74 100.763 19.85C100.763 20.99 100.388 22.045 99.6377 23.015C98.8977 23.975 97.9727 24.74 96.8627 25.31C95.7627 25.87 94.7127 26.15 93.7127 26.15C93.2727 26.15 92.8277 26.125 92.3777 26.075C91.6577 26.025 91.0927 26 90.6827 26H88.0277V24.935L89.4377 23.825V15.92L87.7277 15.41L88.3277 14.21H90.6677C91.5777 14.21 92.4727 14.18 93.3527 14.12C93.9927 14.08 94.4677 14.06 94.7777 14.06ZM94.1327 24.59C94.7027 24.59 95.2227 24.415 95.6927 24.065C96.1727 23.715 96.5477 23.235 96.8177 22.625C97.0977 22.005 97.2377 21.315 97.2377 20.555C97.2377 19.645 97.1027 18.82 96.8327 18.08C96.5727 17.33 96.1677 16.735 95.6177 16.295C95.0777 15.845 94.4077 15.62 93.6077 15.62C93.2777 15.62 92.9677 15.705 92.6777 15.875V24.35C93.1077 24.51 93.5927 24.59 94.1327 24.59ZM107.13 26H102.045V24.935L103.38 23.765V20.84L102.045 19.97V18.905L105.21 17.57H106.38V24.38L107.73 24.8L107.13 26ZM104.895 13.025C105.395 13.025 105.805 13.18 106.125 13.49C106.455 13.8 106.62 14.185 106.62 14.645C106.62 14.965 106.5 15.265 106.26 15.545C106.03 15.825 105.74 16.05 105.39 16.22C105.04 16.39 104.7 16.475 104.37 16.475C103.88 16.475 103.47 16.32 103.14 16.01C102.81 15.7 102.645 15.32 102.645 14.87C102.645 14.55 102.76 14.25 102.99 13.97C103.23 13.68 103.525 13.45 103.875 13.28C104.225 13.11 104.565 13.025 104.895 13.025ZM116.144 19.505C116.264 19.775 116.324 20.06 116.324 20.36C116.324 20.95 116.069 21.525 115.559 22.085C115.059 22.635 114.424 23.065 113.654 23.375C113.394 23.695 113.264 24 113.264 24.29C113.264 24.42 113.359 24.55 113.549 24.68C113.749 24.8 114.074 24.97 114.524 25.19C115.184 25.5 115.694 25.785 116.054 26.045C116.424 26.315 116.609 26.625 116.609 26.975C116.609 27.295 116.404 27.695 115.994 28.175C115.584 28.665 115.074 29.085 114.464 29.435C113.864 29.795 113.274 29.975 112.694 29.975C112.044 29.975 111.279 29.88 110.399 29.69C109.519 29.5 108.784 29.31 108.194 29.12V26.21H109.364C109.804 26.85 110.254 27.335 110.714 27.665C111.174 28.005 111.699 28.175 112.289 28.175C112.579 28.175 112.819 28.125 113.009 28.025C113.199 27.935 113.294 27.835 113.294 27.725C113.294 27.515 113.174 27.325 112.934 27.155C112.694 26.995 112.329 26.805 111.839 26.585C111.279 26.325 110.849 26.09 110.549 25.88C110.259 25.67 110.114 25.42 110.114 25.13C110.114 24.89 110.314 24.645 110.714 24.395C111.114 24.145 111.589 23.925 112.139 23.735C112.049 23.745 111.914 23.75 111.734 23.75C111.084 23.75 110.484 23.63 109.934 23.39C109.394 23.14 108.964 22.81 108.644 22.4C108.334 21.99 108.179 21.555 108.179 21.095C108.179 20.515 108.404 19.965 108.854 19.445C109.304 18.925 109.884 18.505 110.594 18.185C111.304 17.865 112.024 17.705 112.754 17.705C113.604 17.705 114.359 17.905 115.019 18.305H117.554L117.584 19.505H116.144ZM111.134 20.345C111.134 20.745 111.269 21.075 111.539 21.335C111.819 21.595 112.179 21.725 112.619 21.725C112.869 21.725 113.059 21.67 113.189 21.56C113.329 21.44 113.399 21.27 113.399 21.05C113.399 20.63 113.259 20.3 112.979 20.06C112.709 19.82 112.349 19.7 111.899 19.7C111.389 19.7 111.134 19.915 111.134 20.345ZM123.008 26H117.923V24.935L119.258 23.765V20.84L117.923 19.97V18.905L121.088 17.57H122.258V24.38L123.608 24.8L123.008 26ZM120.773 13.025C121.273 13.025 121.683 13.18 122.003 13.49C122.333 13.8 122.498 14.185 122.498 14.645C122.498 14.965 122.378 15.265 122.138 15.545C121.908 15.825 121.618 16.05 121.268 16.22C120.918 16.39 120.578 16.475 120.248 16.475C119.758 16.475 119.348 16.32 119.018 16.01C118.688 15.7 118.523 15.32 118.523 14.87C118.523 14.55 118.638 14.25 118.868 13.97C119.108 13.68 119.403 13.45 119.753 13.28C120.103 13.11 120.443 13.025 120.773 13.025ZM129.743 26.03C129.333 26.11 128.853 26.15 128.303 26.15C127.263 26.15 126.503 25.935 126.023 25.505C125.543 25.065 125.303 24.39 125.303 23.48V19.52H123.683V18.605L127.133 14.99H128.303V18.305H131.003V19.52H128.303V23.21C128.303 23.82 128.693 24.125 129.473 24.125C129.673 24.125 129.868 24.105 130.058 24.065C130.258 24.015 130.508 23.93 130.808 23.81L131.258 24.83L129.743 26.03ZM141.077 26H137.327V24.695L135.632 26.03C135.432 26.11 135.182 26.15 134.882 26.15C133.862 26.15 133.122 25.905 132.662 25.415C132.212 24.915 131.987 24.315 131.987 23.615C131.987 23.215 132.102 22.825 132.332 22.445C132.562 22.055 132.897 21.695 133.337 21.365H137.327C137.297 20.925 137.147 20.595 136.877 20.375C136.607 20.145 136.267 20.03 135.857 20.03C135.167 20.03 134.157 20.24 132.827 20.66L132.377 19.64L134.432 17.99C134.982 17.8 135.642 17.705 136.412 17.705C137.652 17.705 138.617 17.98 139.307 18.53C139.997 19.07 140.342 19.865 140.342 20.915V24.275L141.677 24.8L141.077 26ZM135.797 23.675C136.237 23.675 136.747 23.505 137.327 23.165V22.58H135.047C134.997 22.67 134.962 22.75 134.942 22.82C134.922 22.88 134.912 22.96 134.912 23.06C134.912 23.25 134.987 23.4 135.137 23.51C135.297 23.62 135.522 23.675 135.812 23.675H135.797ZM147.083 26H141.998V24.935L143.333 23.765V16.175L141.998 15.305V14.24L145.163 12.905H146.333V24.38L147.683 24.8L147.083 26Z" fill="#3F3F3F"/>
</svg>
