<svg width="21" height="21" viewBox="0 0 21 21" fill="none" xmlns="http://www.w3.org/2000/svg">
<path fill-rule="evenodd" clip-rule="evenodd" d="M0.427246 2.35003C0.427246 1.90521 0.603948 1.47862 0.918479 1.16409C1.23301 0.849556 1.65961 0.672854 2.10442 0.672854H18.8232C19.0437 0.672494 19.262 0.715616 19.4658 0.799752C19.6695 0.883888 19.8547 1.00739 20.0106 1.16317C20.1666 1.31896 20.2903 1.50398 20.3746 1.70764C20.459 1.9113 20.5024 2.12959 20.5022 2.35003V19.0689C20.5025 19.2893 20.4592 19.5077 20.375 19.7115C20.2908 19.9152 20.1672 20.1004 20.0113 20.2563C19.8555 20.4122 19.6704 20.5359 19.4667 20.6203C19.263 20.7046 19.0446 20.748 18.8242 20.7479H2.10442C1.88409 20.7479 1.66593 20.7044 1.46238 20.6201C1.25884 20.5358 1.07391 20.4121 0.918157 20.2563C0.762405 20.1005 0.638884 19.9155 0.554652 19.7119C0.470419 19.5083 0.427126 19.2901 0.427246 19.0698V2.35003ZM8.3733 8.3269H11.0916V9.692C11.484 8.90725 12.4878 8.20098 13.9961 8.20098C16.8878 8.20098 17.5731 9.76409 17.5731 12.6321V17.9447H14.6467V13.2854C14.6467 11.6521 14.2544 10.7304 13.2579 10.7304C11.8755 10.7304 11.3006 11.7241 11.3006 13.2854V17.9447H8.3733V8.3269ZM3.35455 17.8196H6.28185V8.20098H3.35455V17.8196ZM6.70068 5.0638C6.7062 5.31444 6.6616 5.56366 6.5695 5.79683C6.4774 6.03 6.33965 6.24242 6.16434 6.42163C5.98904 6.60084 5.7797 6.74323 5.54861 6.84045C5.31753 6.93766 5.06935 6.98773 4.81865 6.98773C4.56795 6.98773 4.31978 6.93766 4.08869 6.84045C3.85761 6.74323 3.64827 6.60084 3.47296 6.42163C3.29765 6.24242 3.1599 6.03 3.0678 5.79683C2.9757 5.56366 2.9311 5.31444 2.93662 5.0638C2.94745 4.57183 3.1505 4.10366 3.50227 3.75955C3.85404 3.41545 4.32656 3.22276 4.81865 3.22276C5.31074 3.22276 5.78327 3.41545 6.13504 3.75955C6.48681 4.10366 6.68985 4.57183 6.70068 5.0638Z" fill="white"/>
</svg>
