<svg width="20" height="22" viewBox="0 0 20 22" fill="none" xmlns="http://www.w3.org/2000/svg">
<path d="M13.0949 16.5055C15.1133 16.2665 17.0966 15.7902 19.0034 15.0863C17.3885 13.2975 16.4962 10.9724 16.4998 8.5625V7.80417V7.75C16.4998 6.02609 15.815 4.37279 14.596 3.15381C13.377 1.93482 11.7237 1.25 9.99978 1.25C8.27588 1.25 6.62258 1.93482 5.40359 3.15381C4.1846 4.37279 3.49978 6.02609 3.49978 7.75V8.5625C3.50305 10.9725 2.61035 13.2977 0.995117 15.0863C2.87253 15.7797 4.85178 16.2618 6.9047 16.5055M13.0949 16.5055C11.0387 16.7494 8.96088 16.7494 6.9047 16.5055M13.0949 16.5055C13.251 16.9929 13.2898 17.5102 13.2082 18.0154C13.1265 18.5206 12.9268 18.9993 12.6251 19.4127C12.3235 19.8261 11.9284 20.1624 11.4722 20.3942C11.016 20.6261 10.5115 20.7469 9.99978 20.7469C9.48804 20.7469 8.98353 20.6261 8.52733 20.3942C8.07112 20.1624 7.67611 19.8261 7.37446 19.4127C7.0728 18.9993 6.87303 18.5206 6.7914 18.0154C6.70977 17.5102 6.74859 16.9929 6.9047 16.5055" stroke="black" stroke-width="1.5" stroke-linecap="round" stroke-linejoin="round"/>
</svg>
