<svg width="14" height="14" viewBox="0 0 14 14" fill="none" xmlns="http://www.w3.org/2000/svg">
<path d="M5.875 2.5H13.1875M5.875 2.5C5.875 2.79837 5.75647 3.08452 5.5455 3.2955C5.33452 3.50647 5.04837 3.625 4.75 3.625C4.45163 3.625 4.16548 3.50647 3.9545 3.2955C3.74353 3.08452 3.625 2.79837 3.625 2.5M5.875 2.5C5.875 2.20163 5.75647 1.91548 5.5455 1.7045C5.33452 1.49353 5.04837 1.375 4.75 1.375C4.45163 1.375 4.16548 1.49353 3.9545 1.7045C3.74353 1.91548 3.625 2.20163 3.625 2.5M3.625 2.5H0.8125M5.875 11.5H13.1875M5.875 11.5C5.875 11.7984 5.75647 12.0845 5.5455 12.2955C5.33452 12.5065 5.04837 12.625 4.75 12.625C4.45163 12.625 4.16548 12.5065 3.9545 12.2955C3.74353 12.0845 3.625 11.7984 3.625 11.5M5.875 11.5C5.875 11.2016 5.75647 10.9155 5.5455 10.7045C5.33452 10.4935 5.04837 10.375 4.75 10.375C4.45163 10.375 4.16548 10.4935 3.9545 10.7045C3.74353 10.9155 3.625 11.2016 3.625 11.5M3.625 11.5H0.8125M10.375 7H13.1875M10.375 7C10.375 7.29837 10.2565 7.58452 10.0455 7.7955C9.83452 8.00647 9.54837 8.125 9.25 8.125C8.95163 8.125 8.66548 8.00647 8.4545 7.7955C8.24353 7.58452 8.125 7.29837 8.125 7M10.375 7C10.375 6.70163 10.2565 6.41548 10.0455 6.2045C9.83452 5.99353 9.54837 5.875 9.25 5.875C8.95163 5.875 8.66548 5.99353 8.4545 6.2045C8.24353 6.41548 8.125 6.70163 8.125 7M8.125 7H0.8125" stroke="#393939" stroke-width="1.5" stroke-linecap="round" stroke-linejoin="round"/>
</svg>
