<svg width="25" height="20" viewBox="0 0 25 20" fill="none" xmlns="http://www.w3.org/2000/svg">
<path d="M24.3522 2.47944C23.4909 2.85948 22.5657 3.11627 21.593 3.23234C22.5966 2.63432 23.3475 1.69312 23.7055 0.584342C22.7626 1.14207 21.7306 1.53466 20.6544 1.74502C19.9307 0.975548 18.9721 0.465527 17.9275 0.294144C16.8828 0.122762 15.8106 0.299606 14.8773 0.797222C13.9439 1.29484 13.2017 2.08538 12.7658 3.04612C12.3298 4.00686 12.2246 5.08404 12.4665 6.11042C10.5558 6.01489 8.68673 5.52037 6.98045 4.65896C5.27416 3.79754 3.76884 2.58848 2.56217 1.11024C2.14958 1.81898 1.91234 2.6407 1.91234 3.51584C1.91188 4.30366 2.1067 5.07941 2.47953 5.77427C2.85235 6.46913 3.39165 7.0616 4.04957 7.49913C3.28656 7.47496 2.54038 7.26965 1.87314 6.9003V6.96193C1.87306 8.06688 2.25688 9.13783 2.95948 9.99306C3.66207 10.8483 4.64016 11.4351 5.72779 11.654C5.01997 11.8447 4.27787 11.8728 3.55755 11.7361C3.86441 12.6869 4.46216 13.5183 5.2671 14.1139C6.07203 14.7096 7.04387 15.0396 8.04656 15.0579C6.34444 16.3885 4.24234 17.1103 2.0784 17.1071C1.69509 17.1072 1.31209 17.0849 0.931396 17.0404C3.12791 18.4467 5.68482 19.1931 8.29618 19.1902C17.136 19.1902 21.9685 11.8995 21.9685 5.5763C21.9685 5.37087 21.9633 5.16339 21.954 4.95796C22.894 4.28104 23.7054 3.4428 24.3502 2.48252L24.3522 2.47944Z" fill="white"/>
</svg>
